<?xml version="1.0" encoding="utf-8"?>
<!-- Generator: Adobe Illustrator 22.0.0, SVG Export Plug-In . SVG Version: 6.00 Build 0)  -->
<svg version="1.1" id="Capa_1" xmlns="http://www.w3.org/2000/svg" xmlns:xlink="http://www.w3.org/1999/xlink" x="0px" y="0px"
	 viewBox="0 0 512 512" style="enable-background:new 0 0 512 512;" xml:space="preserve">
<style type="text/css">
	.st0{fill:#29485A;}
	.st1{fill:#E6E6E6;}
	.st2{fill:#B3B3B3;}
	.st3{fill:#0016FF;}
	.st4{fill:#29ABE2;}
	.st5{fill:#333333;}
</style>
<g>
	<g>
		<path class="st0" d="M153.6,142.1c-4.7,0-8.5-3.8-8.5-8.5V90.9c0-4.7,3.8-8.5,8.5-8.5c4.7,0,8.5,3.8,8.5,8.5v42.7
			C162.1,138.2,158.3,142.1,153.6,142.1z"/>
		<path class="st0" d="M187.7,142.1c-4.7,0-8.5-3.8-8.5-8.5V90.9c0-4.7,3.8-8.5,8.5-8.5c4.7,0,8.5,3.8,8.5,8.5v42.7
			C196.3,138.2,192.4,142.1,187.7,142.1z"/>
		<path class="st0" d="M324.3,142.1c-4.7,0-8.5-3.8-8.5-8.5V90.9c0-4.7,3.8-8.5,8.5-8.5c4.7,0,8.5,3.8,8.5,8.5v42.7
			C332.8,138.2,329,142.1,324.3,142.1z"/>
		<path class="st0" d="M358.4,142.1c-4.7,0-8.5-3.8-8.5-8.5V90.9c0-4.7,3.8-8.5,8.5-8.5s8.5,3.8,8.5,8.5v42.7
			C366.9,138.2,363.1,142.1,358.4,142.1z"/>
	</g>
	<path class="st1" d="M119.5,261.5V150.6c0-9.4,7.6-17.1,17.1-17.1h238.9c9.4,0,17.1,7.6,17.1,17.1v110.9H119.5z"/>
	<g>
	</g>
	<path class="st2" d="M366.9,423.7c68.3-59.7,85.3-153.6,85.3-153.6L256,227.4L59.7,270.1c0,0,17.1,93.9,85.3,153.6H366.9z"/>
	<path class="st3" d="M341.3,295.7c-0.6,0-1.1-0.1-1.7-0.2L256,278.8l-83.6,16.7c-4.6,1.1-9.2-1.8-10.3-6.3
		c-1.1-4.6,1.8-9.2,6.3-10.3c0.2,0,0.4-0.1,0.6-0.1l85.3-17.1c1.1-0.2,2.2-0.2,3.3,0l85.3,17.1c4.6,0.9,7.6,5.4,6.7,10.1
		C348.9,292.8,345.4,295.7,341.3,295.7z"/>
	<g>
		<path class="st4" d="M153.6,167.7h25.6v25.6h-25.6V167.7z"/>
		<path class="st4" d="M213.3,167.7h25.6v25.6h-25.6V167.7z"/>
		<path class="st4" d="M273.1,167.7h25.6v25.6h-25.6V167.7z"/>
		<path class="st4" d="M332.8,167.7h25.6v25.6h-25.6V167.7z"/>
	</g>
	<path class="st5" d="M221.9,99.4h68.3v34.1h-68.3V99.4z"/>
	<path class="st3" d="M221.9,65.3h68.3v34.1h-68.3V65.3z"/>
</g>
</svg>
