<?xml version="1.0" encoding="UTF-8" standalone="no"?>
<svg width="547px" height="171px" viewBox="0 0 547 171" version="1.1" xmlns="http://www.w3.org/2000/svg" xmlns:xlink="http://www.w3.org/1999/xlink">
    <g id="zzz" stroke="none" stroke-width="1" fill="none" fill-rule="evenodd">
        <g id="Logos" transform="translate(-20.000000, -470.000000)">
            <g id="logo-feadship-splash" transform="translate(20.000000, 470.000000)">
                <g id="Royal-Dutch-Shipyards" transform="translate(71.230317, 145.092166)" fill="#7D878C">
                    <path d="M6.50911514,13.6768069 C6.50911514,13.6768069 7.98091506,13.8243225 9.68468345,13.8243225 C12.0303646,13.8243225 14.3760457,12.5641175 14.3760457,8.68445627 C14.3760457,6.8910876 13.2721958,5.2431272 10.1906147,5.2431272 C8.48684628,5.2431272 7.70495257,5.29159663 7.70495257,5.29159663 L6.50911514,13.6768069 L6.50911514,13.6768069 Z M19.7133201,25.1176982 C19.7133201,25.1176982 18.8394389,25.3621527 17.963558,25.3621527 C16.1718016,25.3621527 14.7899894,24.7805196 13.778127,23.4697378 C12.1683458,21.4845988 9.82066496,16.4901408 9.82066496,16.4901408 L6.09517141,16.3426252 L4.85334023,25.168275 L1.40380916,25.168275 L4.62337149,2.62577833 C4.62337149,2.62577833 6.64909611,2.52883949 10.0066397,2.52883949 C14.9279707,2.52883949 18.1015392,4.65938675 18.1015392,8.68445627 C18.1015392,13.9212614 12.9962333,15.5692218 12.9962333,15.5692218 C16.4457643,22.2116402 17.8715705,22.7932732 19.4833514,22.7932732 L20.0812701,22.7932732 L19.7133201,25.1176982 L19.7133201,25.1176982 Z" id="Fill-10"></path>
                    <path d="M34.5673009,5.14618835 C29.9679261,5.14618835 27.0223265,9.1691505 27.0223265,15.132997 C27.0223265,19.8830005 29.5519826,22.5993955 33.4174572,22.5993955 C38.0168319,22.5993955 40.870444,18.2350401 40.870444,12.319663 C40.870444,8.19976203 38.7527319,5.14618835 34.5673009,5.14618835 L34.5673009,5.14618835 Z M33.3714634,25.6044998 C27.0683203,25.6044998 23.2048455,21.1916749 23.2048455,14.9854813 C23.2048455,8.539048 26.930339,2.1410841 34.7512758,2.1410841 C40.7784565,2.1410841 44.7339188,5.82476028 44.7339188,12.319663 C44.7339188,19.252898 40.686469,25.6044998 33.3714634,25.6044998 L33.3714634,25.6044998 Z" id="Fill-11"></path>
                    <path d="M67.0428861,4.95020329 L66.6729364,4.95020329 C65.3411174,4.95020329 64.5592237,5.5803058 61.3376616,9.89829922 C58.3480681,13.9676234 57.3821994,15.5207523 57.3821994,15.5207523 L56.0003872,25.168275 L52.5068621,25.168275 L53.9306686,15.2784052 L47.9514814,2.62577833 L51.7689624,2.62577833 L56.1403682,12.4671787 C56.1403682,12.4671787 58.0721056,9.31455877 59.7278805,6.98802645 C62.3495241,3.3022429 63.453374,2.33496179 66.0310236,2.33496179 C66.9049048,2.33496179 67.3628426,2.62577833 67.3628426,2.62577833 L67.0428861,4.95020329" id="Fill-12"></path>
                    <path d="M76.3336231,7.08496529 L72.376161,14.8885425 L78.0353917,14.8885425 L76.3336231,7.08496529 L76.3336231,7.08496529 Z M80.2430916,25.168275 L78.6333104,17.653407 L70.9503549,17.653407 L67.1328738,25.168275 L63.4993678,25.168275 L75.6437169,2.62577833 L78.5873167,2.62577833 L83.8765977,25.168275 L80.2430916,25.168275 L80.2430916,25.168275 Z" id="Fill-13"></path>
                    <polyline id="Fill-14" points="102.32209 25.168275 88.6119539 25.168275 91.8315162 2.62577833 95.3290408 2.62577833 92.5694159 21.8723542 102.782028 21.8723542 102.32209 25.168275"></polyline>
                    <path d="M119.613739,22.1147013 C119.613739,22.1147013 120.763583,22.2580022 124.031139,22.2580022 C129.504395,22.2580022 132.539982,18.913612 132.539982,12.7579952 C132.539982,7.56965953 129.504395,5.4370049 125.178983,5.4370049 C122.973283,5.4370049 121.959421,5.53394374 121.959421,5.53394374 L119.613739,22.1147013 L119.613739,22.1147013 Z M118.87584,2.62577833 C118.87584,2.62577833 120.993552,2.57520154 125.318964,2.57520154 C131.714095,2.57520154 136.357463,5.67724465 136.357463,12.8064646 C136.357463,18.6712649 132.99992,25.2167444 123.755176,25.2167444 C119.429764,25.2167444 115.656277,25.168275 115.656277,25.168275 L118.87584,2.62577833 L118.87584,2.62577833 Z" id="Fill-15"></path>
                    <path d="M160.368199,2.62577833 C160.368199,2.62577833 159.908262,6.79414875 159.538312,9.70442153 C159.078375,13.4344598 158.528449,17.4110599 157.79055,19.3498368 C156.31875,23.372799 153.513131,25.4569842 148.359832,25.4569842 C142.702601,25.4569842 140.35692,22.308579 140.35692,18.4773872 C140.35692,16.4901408 140.770863,13.6304448 141.182807,10.4778249 C141.736732,6.84261818 142.334651,2.62577833 142.334651,2.62577833 L145.690195,2.62577833 C145.690195,2.62577833 145.094276,7.23037356 144.542351,10.8192183 C144.126407,13.7737457 143.806451,16.2962631 143.806451,17.9442235 C143.806451,20.9514351 145.600207,22.4055178 149.049738,22.4055178 C153.649113,22.4055178 154.614981,19.1559591 155.2149,16.1993243 C155.58285,14.5998333 155.996794,11.6895605 156.364743,8.97738018 C156.778687,5.67724465 157.146637,2.62577833 157.146637,2.62577833 L160.368199,2.62577833" id="Fill-16"></path>
                    <polyline id="Fill-17" points="181.295354 5.87322971 173.888361 5.87322971 171.126737 25.168275 167.631212 25.168275 170.392836 5.87322971 163.031837 5.87322971 163.491775 2.62577833 181.755292 2.62577833 181.295354 5.87322971"></polyline>
                    <path d="M200.38276,6.64874048 C200.38276,6.64874048 198.405028,5.4370049 194.723529,5.4370049 C189.756204,5.4370049 185.938723,8.44210915 185.938723,14.5998333 C185.938723,19.8366384 188.698348,22.3549411 192.975767,22.3549411 C197.025216,22.3549411 199.232916,21.094736 199.232916,21.094736 L198.726985,24.293718 C198.726985,24.293718 196.841241,25.507561 192.515829,25.507561 C185.476786,25.507561 182.303217,20.513103 182.303217,14.8421804 C182.303217,7.37578184 187.454517,2.284385 195.185466,2.284385 C199.140928,2.284385 200.934685,3.39918174 200.934685,3.39918174 L200.38276,6.64874048" id="Fill-18"></path>
                    <polyline id="Fill-19" points="221.079946 25.168275 217.584421 25.168275 219.058221 14.7452416 207.787753 14.7452416 206.313953 25.168275 202.816429 25.168275 206.037991 2.62577833 209.535515 2.62577833 208.245691 11.5926217 219.516159 11.5926217 220.805983 2.62577833 224.301508 2.62577833 221.079946 25.168275"></polyline>
                    <path d="M251.485813,6.404286 C251.485813,6.404286 248.818175,5.2431272 246.242525,5.2431272 C244.172807,5.2431272 242.790995,6.01863798 242.790995,8.05435376 C242.790995,9.89829922 244.172807,10.6253406 246.610475,12.0794233 C249.186125,13.5819754 251.669788,15.3268747 251.669788,18.7682037 C251.669788,23.6657229 247.622338,25.4106221 243.754864,25.4106221 C239.891389,25.4106221 237.041776,23.8596006 237.041776,23.8596006 L237.177758,20.3192253 C237.177758,20.3192253 240.03137,22.4518799 244.032826,22.4518799 C246.748457,22.4518799 248.218257,21.5309609 248.218257,19.2065359 C248.218257,17.2656516 246.700463,16.393202 243.894844,14.7452416 C241.367188,13.2405821 239.479445,11.398744 239.479445,8.539048 C239.479445,5.14618835 241.917113,2.284385 246.700463,2.284385 C250.016012,2.284385 251.897757,3.3022429 251.897757,3.3022429 L251.485813,6.404286" id="Fill-20"></path>
                    <polyline id="Fill-21" points="275.586536 25.168275 272.091011 25.168275 273.564811 14.7452416 262.294343 14.7452416 260.820544 25.168275 257.325019 25.168275 260.542581 2.62577833 264.042106 2.62577833 262.752281 11.5926217 274.022749 11.5926217 275.312573 2.62577833 278.808098 2.62577833 275.586536 25.168275"></polyline>
                    <polyline id="Fill-22" points="287.268948 25.168275 283.773423 25.168275 286.990986 2.62577833 290.49051 2.62577833 287.268948 25.168275"></polyline>
                    <path d="M300.515147,14.1151391 C300.515147,14.1151391 301.299041,14.3574862 303.182785,14.3574862 C306.404347,14.3574862 308.29009,12.8064646 308.29009,9.21761993 C308.29009,7.03649587 306.866284,5.34006605 304.060665,5.34006605 C302.218916,5.34006605 301.756979,5.38853547 301.756979,5.38853547 L300.515147,14.1151391 L300.515147,14.1151391 Z M298.673398,2.62577833 C298.673398,2.62577833 300.655128,2.57520154 304.194647,2.57520154 C308.014128,2.57520154 311.96959,4.22316194 311.96959,9.12068108 C311.96959,13.9676234 308.380078,17.1202433 303.460747,17.1202433 C301.435022,17.1202433 300.149197,16.9263656 300.149197,16.9263656 L298.95136,25.168275 L295.455835,25.168275 L298.673398,2.62577833 L298.673398,2.62577833 Z" id="Fill-23"></path>
                    <path d="M333.910608,4.95020329 L333.542658,4.95020329 C332.208839,4.95020329 331.428945,5.5803058 328.205383,9.89829922 C325.217789,13.9676234 324.249921,15.5207523 324.249921,15.5207523 L322.868109,25.168275 L319.372584,25.168275 L320.79839,15.2784052 L314.821203,2.62577833 L318.638684,2.62577833 L323.00809,12.4671787 C323.00809,12.4671787 324.939827,9.31455877 326.597602,6.98802645 C329.219245,3.3022429 330.321096,2.33496179 332.898745,2.33496179 C333.772626,2.33496179 334.232564,2.62577833 334.232564,2.62577833 L333.910608,4.95020329" id="Fill-24"></path>
                    <path d="M343.201345,7.08496529 L339.243883,14.8885425 L344.903113,14.8885425 L343.201345,7.08496529 L343.201345,7.08496529 Z M347.108813,25.168275 L345.499032,17.653407 L337.818076,17.653407 L334.000595,25.168275 L330.367089,25.168275 L342.511438,2.62577833 L345.455038,2.62577833 L350.742319,25.168275 L347.108813,25.168275 L347.108813,25.168275 Z" id="Fill-25"></path>
                    <path d="M359.665106,13.6768069 C359.665106,13.6768069 361.134907,13.8243225 362.838675,13.8243225 C365.186356,13.8243225 367.530037,12.5641175 367.530037,8.68445627 C367.530037,6.8910876 366.428187,5.2431272 363.344606,5.2431272 C361.640838,5.2431272 360.860944,5.29159663 360.860944,5.29159663 L359.665106,13.6768069 L359.665106,13.6768069 Z M372.867312,25.1176982 C372.867312,25.1176982 371.993431,25.3621527 371.119549,25.3621527 C369.327793,25.3621527 367.945981,24.7805196 366.934118,23.4697378 C365.324337,21.4845988 362.976656,16.4901408 362.976656,16.4901408 L359.249163,16.3426252 L358.007332,25.168275 L354.557801,25.168275 L357.779363,2.62577833 C357.779363,2.62577833 359.805087,2.52883949 363.160631,2.52883949 C368.081962,2.52883949 371.257531,4.65938675 371.257531,8.68445627 C371.257531,13.9212614 366.150225,15.5692218 366.150225,15.5692218 C369.599756,22.2116402 371.025562,22.7932732 372.639343,22.7932732 L373.235262,22.7932732 L372.867312,25.1176982 L372.867312,25.1176982 Z" id="Fill-26"></path>
                    <path d="M379.948349,22.1147013 C379.948349,22.1147013 381.100193,22.2580022 384.365749,22.2580022 C389.839005,22.2580022 392.876592,18.913612 392.876592,12.7579952 C392.876592,7.56965953 389.839005,5.4370049 385.513593,5.4370049 C383.307892,5.4370049 382.29603,5.53394374 382.29603,5.53394374 L379.948349,22.1147013 L379.948349,22.1147013 Z M379.212449,2.62577833 C379.212449,2.62577833 381.328162,2.57520154 385.653574,2.57520154 C392.046704,2.57520154 396.694073,5.67724465 396.694073,12.8064646 C396.694073,18.6712649 393.334529,25.2167444 384.089786,25.2167444 C379.764374,25.2167444 375.990887,25.168275 375.990887,25.168275 L379.212449,2.62577833 L379.212449,2.62577833 Z" id="Fill-27"></path>
                    <path d="M413.803747,6.404286 C413.803747,6.404286 411.138109,5.2431272 408.56046,5.2431272 C406.490741,5.2431272 405.110928,6.01863798 405.110928,8.05435376 C405.110928,9.89829922 406.490741,10.6253406 408.928409,12.0794233 C411.506059,13.5819754 413.987722,15.3268747 413.987722,18.7682037 C413.987722,23.6657229 409.942272,25.4106221 406.074797,25.4106221 C402.211323,25.4106221 399.36171,23.8596006 399.36171,23.8596006 L399.495692,20.3192253 C399.495692,20.3192253 402.349304,22.4518799 406.35276,22.4518799 C409.06839,22.4518799 410.538191,21.5309609 410.538191,19.2065359 C410.538191,17.2656516 409.018397,16.393202 406.212779,14.7452416 C403.685122,13.2405821 401.799379,11.398744 401.799379,8.539048 C401.799379,5.14618835 404.237047,2.284385 409.018397,2.284385 C412.333947,2.284385 414.21769,3.3022429 414.21769,3.3022429 L413.803747,6.404286" id="Fill-28"></path>
                </g>
                <g id="Feadship" fill="#0C3DD1">
                    <path d="M138.00324,102.831043 C131.312149,112.246755 118.661869,115.747091 106.625505,115.968364 L102.76203,115.968364 L112.080764,81.184177 L133.255885,81.184177 L134.905661,74.9969497 L113.718541,74.9969497 L122.021412,43.8985461 L128.686506,43.8985461 C134.239751,43.9849481 138.575162,45.4116351 141.45677,49.0384124 C144.372374,52.7326254 145.822177,57.4404816 145.822177,63.0755789 C145.822177,64.1081883 145.786182,65.1386904 145.704193,66.1312599 L147.617933,66.1312599 L154.510995,40.6595242 L94.349174,40.6595242 L93.2873183,43.8395399 L97.3847613,43.8395399 C98.7445765,43.8395399 99.8324286,44.9838397 99.8324286,46.4168488 C99.8324286,46.6697327 99.814431,46.8931135 99.7564389,47.0996354 L82.174829,112.809422 C81.6588991,114.756629 79.9711286,116.183315 77.9694007,116.219141 L74.3498927,116.219141 L73.4200191,119.485558 L131.206164,119.485558 L142.604614,102.171437 L138.37119,102.171437 L138.00324,102.831043" id="Fill-1"></path>
                    <path d="M526.54642,56.4458047 C526.344448,58.1780597 526.012493,59.9714284 525.580552,61.8111591 C524.792659,65.5685931 523.474838,68.7991856 522.436979,71.4418229 C520.981177,75.3172694 518.979449,77.9915171 517.007717,79.4877472 C515.013988,81.0724866 512.046391,81.0830234 508.136923,81.0830234 L504.121469,81.0830234 L514.130108,43.6835948 L517.769613,43.6835948 C523.692808,43.529757 526.808385,46.026986 526.872376,52.022443 C526.872376,53.3100437 526.758391,54.7978443 526.54642,56.4458047 M542.678227,46.6697327 C539.660638,43.6119443 536.085124,41.8270051 531.91769,41.2306205 C529.881967,40.9376966 527.844244,40.7691073 525.768526,40.7691073 C523.618818,40.8555093 521.5431,40.8871198 519.605364,40.8871198 L494.120828,40.8871198 L493.468917,43.2621215 L493.502912,43.2621215 L474.937436,112.575504 C474.413507,114.547999 472.705739,116.010511 470.656018,116.010511 C470.626022,116.010511 470.592027,116.002082 470.526036,116.002082 L470.56603,116.010511 L467.33047,116.010511 L466.414595,119.523491 L501.505824,119.523491 L502.397703,116.010511 L498.064292,116.010511 C496.704477,116.010511 495.592628,114.853567 495.592628,113.405807 C495.592628,113.165567 495.640622,112.925327 495.694614,112.708269 L503.295581,84.2187844 L513.662172,84.2187844 C517.845603,84.2862201 521.921049,84.067054 525.926505,83.5633935 C529.897965,83.1145245 533.569466,81.5339998 536.949006,78.8450005 C539.682635,76.448925 541.946327,73.5744775 543.724085,70.2680199 C545.385859,67.0606084 546.495708,63.5139111 546.577697,59.6953634 C546.645688,54.6461139 545.623827,50.3028321 542.678227,46.6697327" id="Fill-3"></path>
                    <path d="M344.163214,80.5414303 C342.86539,78.0463086 341.159622,76.0527402 339.055908,74.5522954 C336.976191,73.053958 334.752493,71.7537131 332.390814,70.6389163 L326.90556,67.7265362 C325.599737,66.9447033 324.25592,66.1481189 322.892105,65.3536418 C321.594282,64.5760236 320.402444,63.7246477 319.302593,62.7700108 C318.246737,61.804837 317.386854,60.6668593 316.734942,59.3602922 C316.01904,58.1169461 315.683085,56.5322067 315.683085,54.6608655 C315.683085,52.5787877 316.193016,50.8212442 317.186881,49.3566247 C318.054763,47.7824221 319.196608,46.4716403 320.614415,45.4327087 C323.634005,43.4286034 326.805573,42.4149603 330.111124,42.4149603 C335.4344,42.4697518 339.517845,44.3136973 342.331463,47.9151862 C345.195074,51.5756813 346.644876,56.2055649 346.644876,61.8427696 L346.644876,64.5191248 L348.426634,64.5191248 L354.879757,40.8133619 C354.879757,40.8133619 334.904472,39.6500958 327.093534,39.835544 C319.272597,39.9914891 313.555375,41.930266 308.114114,46.1260322 C302.488879,50.4334888 299.61127,56.7956275 299.453292,65.1597641 C299.453292,70.6979226 300.917093,74.9843055 303.8047,78.0526307 C306.578323,81.184177 310.081847,83.89425 314.353266,86.1849571 L320.842384,89.9065658 C322.292187,90.6104262 323.67,91.3522191 324.951825,92.1509109 C326.189657,92.9137775 327.295507,93.8641996 328.289372,94.9621374 C329.305234,95.9926395 330.117123,97.1706573 330.725041,98.521479 C331.278965,99.8786229 331.566926,101.522369 331.566926,103.448501 C331.426945,108.105781 329.573197,111.703055 326.017681,114.212928 C322.49216,116.811311 318.696676,118.109448 314.587234,118.109448 C308.778024,117.993543 304.038668,115.778701 300.337172,111.441741 C296.429703,107.254405 294.445972,102.061854 294.375982,95.8177281 C294.375982,95.1222973 294.703937,92.6271757 294.75793,92.1066562 L292.48024,92.1066562 L285.387204,118.427661 C285.387204,118.427661 307.320222,120.695187 315.041173,120.695187 C322.71413,120.695187 330.2851,118.046227 336.68623,112.935864 C343.195345,107.956158 346.528892,100.942843 346.744863,91.8664164 C346.744863,87.7507302 345.890979,83.9996183 344.163214,80.5414303" id="Fill-4"></path>
                    <path d="M51.191041,64.4032196 L79.0752504,64.4032196 L81.0069878,56.6333603 L53.1187789,56.6333603 L67.204864,4.06721684 L85.4863788,4.06721684 C94.349174,4.19787355 100.498338,6.53705007 105.695632,12.5346144 C110.628961,18.2076443 109.851067,29.0479362 109.417126,30.6305683 L111.948781,30.6305683 L120.159665,0 L31.6356994,0 L30.5318494,3.90705701 L35.9131179,3.90705701 C38.2627985,3.90705701 40.156541,5.9048402 40.156541,8.3767808 C40.156541,8.80246878 40.1005487,9.19865363 40.0085612,9.58008692 L12.7942607,110.86643 C12.2803306,112.765167 10.6465527,114.120204 8.70081719,114.120204 L0.889879028,114.120204 L0,117.336045 L49.3712884,117.336045 L50.2291718,114.290901 L43.3321094,114.290901 C40.9704304,114.290901 39.0806873,112.280473 39.0806873,109.81064 C39.0806873,109.406026 39.1306805,109.020378 39.2166688,108.67477 L51.191041,64.4032196" id="Fill-5"></path>
                    <path d="M267.471639,79.3022989 C265.353927,87.7928775 263.060239,95.0232511 260.562579,100.968131 C256.303158,112.000193 248.876167,116.863995 237.955652,116.7797 L235.823942,116.7797 L255.299294,43.6751653 L256.753096,43.6751653 C261.28848,43.6751653 264.300071,44.1703964 266.835726,45.963765 C269.327387,47.8709315 270.607213,51.4344878 270.687202,56.6797224 C270.607213,63.2273093 269.537359,70.7822172 267.471639,79.3022989 L267.471639,79.3022989 Z M165.261534,89.8496669 L182.667168,64.9679938 L184.888866,89.8496669 L165.261534,89.8496669 L165.261534,89.8496669 Z M287.6229,57.1981344 C285.987122,52.5682508 283.291489,48.8213536 279.567995,45.963765 C276.344433,43.6983463 272.598942,42.2421563 268.35352,41.5720138 C264.180087,41.11893 260.824543,40.8871198 257.033058,40.8871198 L230.75863,40.8871198 L229.87475,43.6835948 L233.432267,43.6835948 C234.794082,43.6835948 235.881934,44.8363241 235.881934,46.2777626 C235.881934,46.5285392 235.869935,46.7603495 235.799945,46.9921598 L217.96237,112.605008 L217.952371,112.605008 C217.426443,114.598576 215.714675,116.0358 213.678952,116.0358 C213.638958,116.0358 213.598963,116.0358 213.562968,116.023156 L213.562968,116.0358 L208.683631,116.0358 L200.804702,40.1685079 L191.92391,40.1685079 L136.297471,119.561424 L152.263301,119.561424 L153.655112,115.862996 L148.88376,115.862996 C148.88376,115.862996 148.145861,115.905143 147.891895,115.401483 C147.645929,114.88307 148.229849,114.149707 148.229849,114.149707 L160.698154,96.3719655 L185.44879,96.3719655 L187.032574,115.862996 L179.827554,115.862996 L178.567725,119.561424 L241.937111,119.561424 C247.864305,119.485558 253.7835,118.703725 259.674699,117.17167 C271.303119,113.873642 279.811962,106.371418 285.139238,94.637603 C288.224818,87.2681433 289.848597,79.6099744 289.982579,71.6335932 C289.982579,66.7466109 289.194686,61.9460306 287.6229,57.1981344 L287.6229,57.1981344 Z" id="Fill-8"></path>
                    <path d="M455.482081,112.750416 L472.973703,47.1122796 C473.505631,45.1418922 475.211399,43.6983463 477.255121,43.6983463 L480.804639,43.6983463 L481.522541,40.9039787 L455.094134,40.9039787 L435.91874,112.632403 C435.388812,114.585932 433.705041,116.023156 431.687316,116.0358 L428.085805,116.0358 L427.141934,119.578282 L460.473402,119.578282 L461.425273,116.0358 L457.857758,116.0358 C456.503942,116.0358 455.392093,114.88307 455.392093,113.469028 C455.392093,113.207714 455.438087,112.980119 455.482081,112.750416 Z" id="Fill-7"></path>
                    <path d="M415.579505,40.7269599 L406.522737,74.7419584 L380.740241,74.7419584 L388.133236,46.8804693 C388.661165,44.9121893 390.378931,43.4475697 392.412655,43.4475697 L395.870185,43.4475697 L396.596086,40.6405579 L370.167679,40.6405579 L361.134907,74.6745227 L359.447136,80.8786089 L351.062276,112.377412 C350.532348,114.362551 348.82458,115.814526 346.788857,115.814526 L343.255337,115.814526 L342.221478,119.321184 L375.514952,119.321184 L376.474821,115.814526 L373.075283,115.814526 C371.713469,115.814526 370.617618,114.644938 370.617618,113.207714 C370.617618,112.956938 370.645614,112.735664 370.717604,112.505961 L379.090466,80.9334004 L404.848964,80.9334004 L396.478102,112.446955 C395.944175,114.417343 394.226408,115.862996 392.196684,115.862996 L388.661165,115.862996 L387.617307,119.386512 L420.91678,119.386512 L421.866651,115.862996 L418.479111,115.862996 C417.123295,115.862996 416.025445,114.687085 416.025445,113.277257 C416.025445,113.011729 416.043442,112.777812 416.095435,112.564968 L433.541064,46.924724 C434.044995,44.956444 435.762762,43.5107907 437.796485,43.5107907 L441.246016,43.5107907 L441.987915,40.7269599 L415.579505,40.7269599 L413.423867,90.6884666" id="Fill-9"></path>
                </g>
            </g>
        </g>
    </g>
</svg>