<?xml version="1.0"?>
<svg xmlns="http://www.w3.org/2000/svg" xmlns:xlink="http://www.w3.org/1999/xlink" version="1.1" id="Capa_1" x="0px" y="0px" viewBox="0 0 512 512" style="enable-background:new 0 0 512 512;" xml:space="preserve" width="512px" height="512px" class=""><g><path style="fill:#5D9BEB;" d="M0,256c0,141.397,114.603,256,256,256s256-114.603,256-256S397.397,0,256,0S0,114.613,0,256z" data-original="#5D9BEB" class=""/><path style="fill:#4988DB;" d="M494.699,348.672l-85.664-85.664h-0.267c-1.129-2.017-3.257-3.268-5.568-3.275h-16l-0.427-0.224  L339.2,213.067l-0.075-0.075h-0.181c-0.85-2.672-3.341-4.479-6.144-4.459h-29.248l-0.629-0.235l-27.733-27.232l-0.203-0.192  l-0.075,0.085c-0.858-2.647-3.329-4.437-6.112-4.427h-38.4c-3.535,0-6.4,2.865-6.4,6.4v25.6h-51.2c-3.535,0-6.4,2.865-6.4,6.4v19.2  h-19.2c-3.535,0-6.4,2.865-6.4,6.4l0,0v25.6h-32c-3.535,0.006-6.395,2.877-6.388,6.412c0.002,1.247,0.369,2.466,1.055,3.508  l37.803,57.365v0.053l-0.16,0.192l31.68,31.68L313.344,505.6C396.036,486.52,463.936,427.765,494.699,348.672z" data-original="#4988DB" class=""/><g>
	<path style="fill:#F4F6F9" d="M408.928,263.275c-1.084-2.171-3.301-3.542-5.728-3.541h-44.8v-19.2c0-3.535-2.865-6.4-6.4-6.4l0,0   h-12.8v-19.2c0-3.535-2.865-6.4-6.4-6.4h-57.6v-25.6c0-3.535-2.865-6.4-6.4-6.4h-38.4c-3.535,0-6.4,2.865-6.4,6.4v25.6h-51.2   c-3.535,0-6.4,2.865-6.4,6.4v19.2h-19.2c-3.535,0-6.4,2.865-6.4,6.4l0,0v25.6h-32c-3.535,0.006-6.395,2.877-6.388,6.412   c0.002,1.247,0.369,2.466,1.055,3.508l37.963,57.6c1.182,1.794,3.185,2.876,5.333,2.88h208.331c2.015,0,3.911-0.948,5.12-2.56   l48.107-64C409.774,268.035,410.01,265.442,408.928,263.275z M345.6,266.133H320v-19.2h25.6V266.133z M275.2,266.133v-19.2h32v19.2   H275.2z M236.8,266.133v-19.2h25.6v19.2H236.8z M198.4,266.133v-19.2H224v19.2H198.4z M243.2,221.333v12.8h-25.6v-12.8H243.2z    M288,221.333v12.8h-32v-12.8H288z M326.4,234.133h-25.6v-12.8h25.6V234.133z M236.8,189.333h25.6v19.2h-25.6V189.333z    M179.2,221.333h25.6v12.8h-25.6V221.333z M153.6,246.933h32v19.2h-32V246.933z M351.893,323.733H150.208l-29.525-44.8H352   c3.535,0,6.4-2.865,6.4-6.4l0,0h32L351.893,323.733z" data-original="#F4F6F9" class="active-path"/>
	<path style="fill:#F4F6F9" d="M222.144,293.589c-2.566-2.369-6.522-2.369-9.088,0c-0.581,0.618-1.038,1.342-1.344,2.133   c-1.412,3.241,0.069,7.012,3.309,8.425s7.012-0.069,8.425-3.309c0.711-1.631,0.711-3.485,0-5.116   C223.151,294.935,222.709,294.211,222.144,293.589z" data-original="#F4F6F9" class="active-path"/>
	<path style="fill:#F4F6F9" d="M183.744,293.589c-2.566-2.369-6.522-2.369-9.088,0c-0.581,0.618-1.038,1.342-1.344,2.133   c-1.385,3.252,0.13,7.011,3.382,8.396s7.011-0.13,8.396-3.382c0.35-0.822,0.524-1.709,0.511-2.603   c0.023-0.839-0.153-1.673-0.512-2.432C184.778,294.918,184.322,294.202,183.744,293.589z" data-original="#F4F6F9" class="active-path"/>
	<path style="fill:#F4F6F9" d="M260.544,293.589c-2.566-2.369-6.522-2.369-9.088,0c-0.581,0.618-1.038,1.342-1.344,2.133   c-1.018,2.382-0.485,5.142,1.344,6.976c0.628,0.568,1.35,1.022,2.133,1.344c0.759,0.357,1.593,0.532,2.432,0.512   c3.499,0.035,6.365-2.772,6.4-6.271c0.009-0.88-0.165-1.753-0.512-2.561C261.596,294.93,261.132,294.206,260.544,293.589z" data-original="#F4F6F9" class="active-path"/>
	<path style="fill:#F4F6F9" d="M298.944,293.589c-2.566-2.369-6.522-2.369-9.088,0c-0.595,0.607-1.053,1.334-1.344,2.133   c-1.412,3.241,0.069,7.012,3.309,8.425c3.239,1.412,7.012-0.069,8.425-3.309c0.711-1.631,0.711-3.485,0-5.116   C299.951,294.935,299.509,294.211,298.944,293.589z" data-original="#F4F6F9" class="active-path"/>
	<path style="fill:#F4F6F9" d="M337.344,293.589c-0.305-0.274-0.626-0.53-0.96-0.768c-0.356-0.243-0.743-0.437-1.152-0.576   c-0.364-0.183-0.751-0.313-1.152-0.384c-2.108-0.429-4.291,0.219-5.824,1.728c-1.169,1.227-1.833,2.849-1.856,4.544   c-0.017,1.702,0.652,3.34,1.856,4.544c0.628,0.567,1.35,1.022,2.133,1.344c0.759,0.357,1.593,0.532,2.432,0.512   c3.499,0.035,6.365-2.772,6.4-6.271c0.009-0.88-0.165-1.753-0.512-2.561C338.393,294.916,337.93,294.199,337.344,293.589z" data-original="#F4F6F9" class="active-path"/>
</g></g> </svg>
